<?xml version="1.0" encoding="UTF-8"?>
<svg version="1.1" xmlns="http://www.w3.org/2000/svg" width="512" height="512">
<path d="M0 0 C0.76569809 0.32939072 1.53139618 0.65878143 2.32029724 0.99815369 C3.97596533 1.71129523 5.63002624 2.4281774 7.28262329 3.14840698 C11.77858524 5.10719486 16.28681363 7.03746355 20.79296875 8.97265625 C21.7244725 9.37364029 22.65597626 9.77462433 23.6157074 10.1877594 C33.14778715 14.28592017 42.7295675 18.26030298 52.3203125 22.21875 C55.71772973 23.62301688 59.11477357 25.0281854 62.51171875 26.43359375 C63.36100952 26.78489349 64.21030029 27.13619324 65.08532715 27.49813843 C74.39637874 31.35186586 83.69549207 35.23406508 92.99154663 39.12380981 C94.79203629 39.87715717 96.59266778 40.63016566 98.39346313 41.38278198 C99.23984344 41.73655914 100.08622375 42.0903363 100.95825195 42.45483398 C101.79463699 42.80408432 102.63102203 43.15333466 103.49275208 43.51316833 C105.14687234 44.20761347 106.79876932 44.90738046 108.44828796 45.61268616 C112.88700575 47.50680188 117.34089303 49.29077672 121.86914062 50.9609375 C123.31743256 51.51920227 123.31743256 51.51920227 124.79498291 52.08874512 C126.64988548 52.80299628 128.51684349 53.48694236 130.39593506 54.1348877 C132.94608211 55.1408476 134.90439203 56.01894589 137.0078125 57.78125 C138.4203674 61.08566803 138.76699051 64.21951049 139.0078125 67.78125 C139.21513406 69.46138764 139.42563092 71.14113941 139.640625 72.8203125 C146.84757322 149.03171897 135.54538951 234.83037491 85.57421875 295.7265625 C81.82331344 300.19111037 78.02552338 304.55402659 74.0078125 308.78125 C73.48767578 309.33393555 72.96753906 309.88662109 72.43164062 310.45605469 C59.22031571 324.40967311 44.46601265 335.89540632 28.0078125 345.78125 C27.40710938 346.14669922 26.80640625 346.51214844 26.1875 346.88867188 C18.04009774 351.80608935 9.65700779 356.01409939 0.9453125 359.84375 C0.06480225 360.23820312 -0.81570801 360.63265625 -1.72290039 361.0390625 C-8.58137416 363.9652048 -13.54658559 364.86196216 -20.671875 362.12890625 C-22.41046684 361.38288743 -24.14200993 360.62028592 -25.8671875 359.84375 C-26.79192871 359.43479492 -27.71666992 359.02583984 -28.66943359 358.60449219 C-49.77642523 349.14211128 -68.71479129 337.20495033 -85.9921875 321.78125 C-86.83652344 321.05808594 -87.68085938 320.33492188 -88.55078125 319.58984375 C-132.42132447 281.4751158 -154.22962938 224.91921623 -162.9921875 168.78125 C-163.15734863 167.78109863 -163.32250977 166.78094727 -163.49267578 165.75048828 C-166.2861129 148.20700985 -166.27801328 130.6291337 -166.3046875 112.90625 C-166.30836334 111.73187378 -166.31203918 110.55749756 -166.31582642 109.34753418 C-166.33956942 94.79853048 -166.01691998 80.34169238 -164.22663879 65.88687134 C-163.93812572 63.57653015 -163.93812572 63.57653015 -163.91552734 60.41503906 C-162.9921875 57.78125 -162.9921875 57.78125 -159.69311523 55.76513672 C-158.19734371 55.13926409 -156.69036888 54.53979269 -155.17578125 53.9609375 C-154.35400894 53.62458282 -153.53223663 53.28822815 -152.68556213 52.94168091 C-149.94199883 51.82440767 -147.18626115 50.74098116 -144.4296875 49.65625 C-142.48661366 48.87100033 -140.54457265 48.08319062 -138.60351562 47.29296875 C-134.49996251 45.62488625 -130.39200879 43.96835984 -126.28076172 42.31933594 C-117.1462249 38.64546587 -108.06857989 34.83570584 -98.98678589 31.03381348 C-93.98329066 28.94098013 -88.9757128 26.85795753 -83.96875 24.7734375 C-73.02728629 20.21524272 -62.08972187 15.64775102 -51.15527344 11.07275391 C-49.32951316 10.30887627 -47.50366994 9.54519682 -45.67773438 8.78173828 C-43.96392715 8.06508444 -42.25031838 7.3479558 -40.53692627 6.63031006 C-38.9221551 5.95469958 -37.30657744 5.28101283 -35.69012451 4.60943604 C-32.07250261 3.10128983 -28.48083791 1.56208305 -24.92675781 -0.09082031 C-23.9810643 -0.52263107 -23.9810643 -0.52263107 -23.01626587 -0.96316528 C-21.35711931 -1.72548652 -19.70667996 -2.50668277 -18.05712891 -3.28955078 C-11.5380702 -5.26593579 -5.92264058 -2.61362912 0 0 Z M-52.9921875 85.78125 C-62.36117867 97.06594544 -68.30051069 109.74728593 -67.95703125 124.61328125 C-67.95209553 126.59447997 -67.94722975 128.57568061 -67.94555664 130.55688477 C-67.93501733 131.90964614 -67.90844186 133.26238193 -67.86547852 134.61450195 C-67.53388709 145.9120006 -67.53388709 145.9120006 -71.18408203 150.59082031 C-73.87109375 152.97265625 -73.87109375 152.97265625 -76.54907227 154.94360352 C-82.23897766 159.22339945 -84.31626087 165.05977605 -85.9921875 171.78125 C-86.1726496 174.31929603 -86.25787917 176.86523015 -86.2668457 179.40966797 C-86.27195663 180.13750488 -86.27706757 180.8653418 -86.28233337 181.61523438 C-86.29613853 184.00138769 -86.2952794 186.38724919 -86.29296875 188.7734375 C-86.29686088 190.44581203 -86.30119661 192.11818557 -86.30595398 193.79055786 C-86.31339684 197.28895274 -86.31313914 200.78724666 -86.30786133 204.28564453 C-86.30207154 208.74967249 -86.31899512 213.21328487 -86.342206 217.67724419 C-86.3570002 221.129551 -86.3578073 224.58175905 -86.35469627 228.03409195 C-86.35520671 229.67898506 -86.36039176 231.32388411 -86.37050819 232.96874619 C-86.44299707 246.40307237 -85.12757046 256.51218704 -75.328125 266.47265625 C-67.48107802 273.62099356 -59.83142595 275.91964545 -49.375 275.97412109 C-48.50611649 275.98229858 -47.63723297 275.99047607 -46.74201965 275.99890137 C-43.86708249 276.02370538 -40.99219472 276.04026306 -38.1171875 276.0546875 C-37.13187042 276.06001118 -36.14655334 276.06533485 -35.13137817 276.07081985 C-29.91099832 276.09753609 -24.6906422 276.11691161 -19.47021484 276.13134766 C-15.16563528 276.14465719 -10.86153309 276.17245707 -6.55712891 276.21337891 C-1.34585832 276.262915 3.86498112 276.28749489 9.07647705 276.29457474 C11.05386055 276.30125407 13.03123569 276.31638864 15.00848389 276.34046555 C28.8616734 276.49946442 40.78748429 275.82121912 51.328125 265.65234375 C60.93740695 254.9480506 61.47032713 242.31128528 61.40625 228.52734375 C61.40827652 226.97518274 61.41119273 225.42302266 61.41494751 223.87086487 C61.41934243 220.63590325 61.41303125 217.40119202 61.39892578 214.16625977 C61.38182099 210.04543124 61.39170105 205.92518856 61.40964317 201.80438137 C61.42054592 198.60508403 61.41700538 195.40592288 61.4092598 192.20662117 C61.40727642 190.68816112 61.40965061 189.1696882 61.41669846 187.65124321 C61.4655314 174.18010652 59.96570472 162.82203693 50.1328125 152.88671875 C47.0099386 149.80306286 47.0099386 149.80306286 43.0078125 148.78125 C43.02352295 147.75523682 43.02352295 147.75523682 43.03955078 146.70849609 C43.33191357 124.69986964 43.41475931 105.76639275 29.0078125 87.78125 C28.25951172 86.84345703 28.25951172 86.84345703 27.49609375 85.88671875 C18.20484027 75.51889685 3.66684181 69.74306127 -9.93359375 68.62109375 C-25.93044416 67.94351077 -41.73489674 74.52395924 -52.9921875 85.78125 Z " fill="#7872ED" transform="translate(268.9921875,77.21875)"/>
<path d="M0 0 C4.47185431 1.96135685 8.97729797 3.83968595 13.48583984 5.71484375 C15.21322807 6.43372786 16.9406041 7.15264127 18.66796875 7.87158203 C19.55156067 8.23930725 20.43515259 8.60703247 21.34552002 8.98590088 C25.99757106 10.92575912 30.64375267 12.87957615 35.29052734 14.83203125 C46.18089858 19.4054357 57.0829047 23.95062067 67.98770142 28.48950195 C70.99689457 29.74256403 74.0055017 30.99702245 77.01391602 32.25195312 C86.07424068 36.03076191 95.13661274 39.80408109 104.21160889 43.54754639 C108.16354163 45.17889748 112.11295906 46.8162811 116.06201172 48.45458984 C117.914019 49.22112577 119.76717887 49.98488397 121.62158203 50.74560547 C146.07147959 60.77806068 146.07147959 60.77806068 152.38037109 67.99609375 C152.98623047 68.66125 153.59208984 69.32640625 154.21630859 70.01171875 C158.75114711 76.94269465 160.66258682 84.42260556 161.63037109 92.55859375 C161.74807861 93.49453369 161.86578613 94.43047363 161.98706055 95.39477539 C172.75776898 185.60588279 158.55999404 283.31930699 101.76318359 356.640625 C96.15035534 363.62170499 90.17047952 370.25341971 84.00537109 376.74609375 C83.24716064 377.54732666 83.24716064 377.54732666 82.47363281 378.36474609 C75.05308929 386.15087923 67.26402876 393.04865309 58.65917969 399.49804688 C57.11992341 400.65964683 55.60266137 401.85023474 54.08740234 403.04296875 C29.21326408 422.39333286 -6.41458774 445.13302852 -38.99462891 441.74609375 C-75.42509612 434.79604655 -112.05277224 406.62093261 -138.55712891 381.93359375 C-139.19980713 381.33571045 -139.84248535 380.73782715 -140.50463867 380.12182617 C-144.96216206 375.89955287 -149.0153192 371.41809584 -152.99462891 366.74609375 C-153.80287109 365.81925781 -154.61111328 364.89242188 -155.44384766 363.9375 C-197.29379784 314.78389359 -216.79005383 252.11219526 -222.99462891 188.74609375 C-223.0903418 187.84777832 -223.18605469 186.94946289 -223.28466797 186.02392578 C-224.39077248 174.17592099 -224.23667048 162.25954038 -224.24462891 150.37109375 C-224.24596832 149.19434082 -224.24730774 148.01758789 -224.24868774 146.80517578 C-224.23259854 81.60507792 -224.23259854 81.60507792 -210.51785278 66.17010498 C-204.66018783 60.69396926 -197.47796771 57.37997202 -190.12744141 54.41796875 C-189.19233734 54.03175354 -188.25723328 53.64553833 -187.29379272 53.24761963 C-184.23930698 51.98822625 -181.17952142 50.74228552 -178.11962891 49.49609375 C-175.95968592 48.60783463 -173.80018711 47.71849469 -171.64111328 46.828125 C-167.22432353 45.00738109 -162.80586935 43.19076934 -158.38623047 41.37695312 C-149.93676222 37.90467305 -141.51252055 34.37284209 -133.09002686 30.83575439 C-128.7260717 29.00357672 -124.36041799 27.17545884 -119.99462891 25.34765625 C-119.11696869 24.9801828 -118.23930847 24.61270935 -117.33505249 24.23410034 C-104.07878378 18.68605375 -90.81098429 13.16558792 -77.54345703 7.64453125 C-76.11700867 7.05070648 -76.11700867 7.05070648 -74.66174316 6.44488525 C-72.79948481 5.66963537 -70.93710146 4.89468566 -69.07458496 4.12005615 C-64.5466203 2.23477558 -60.02408287 0.3378473 -55.51025391 -1.58105469 C-54.63840454 -1.95104584 -53.76655518 -2.32103699 -52.86828613 -2.70223999 C-51.2297293 -3.39855747 -49.59220683 -4.09731611 -47.95593262 -4.79898071 C-47.22813599 -5.10814423 -46.50033936 -5.41730774 -45.75048828 -5.73583984 C-44.80272522 -6.14121475 -44.80272522 -6.14121475 -43.83581543 -6.55477905 C-28.22096404 -12.48398131 -14.27168957 -6.27900609 0 0 Z M-39.59228516 24.3046875 C-40.91825462 24.86762009 -40.91825462 24.86762009 -42.27101135 25.44192505 C-44.19125267 26.25741977 -46.11083697 27.0744629 -48.02984619 27.89285278 C-53.18013453 30.08877856 -58.33557169 32.27255099 -63.49072266 34.45703125 C-64.54420898 34.90371658 -65.59769531 35.35040192 -66.68310547 35.81062317 C-76.64054479 40.02862533 -86.62559155 44.17821352 -96.61962891 48.30859375 C-99.97789119 49.69745924 -103.33594889 51.08681837 -106.69384766 52.4765625 C-107.94587982 52.99474297 -107.94587982 52.99474297 -109.22320557 53.52339172 C-123.74047505 59.53583025 -138.2305185 65.61357707 -152.71723938 71.69917297 C-157.26484089 73.60765306 -161.81743825 75.50293864 -166.37901306 77.3777771 C-168.26459787 78.15325027 -170.14832993 78.9332238 -172.03198242 79.71337891 C-174.21410243 80.61681137 -176.39925551 81.51297192 -178.58813477 82.39990234 C-179.52536377 82.79000488 -180.46259277 83.18010742 -181.42822266 83.58203125 C-182.22284912 83.9073584 -183.01747559 84.23268555 -183.83618164 84.56787109 C-187.16448981 86.38468087 -189.5201077 88.27837351 -190.70825195 91.95336914 C-190.80662354 92.74219482 -190.90499512 93.53102051 -191.00634766 94.34375 C-191.12429687 95.22869141 -191.24224609 96.11363281 -191.36376953 97.02539062 C-191.46882813 97.94384766 -191.57388672 98.86230469 -191.68212891 99.80859375 C-191.79878906 100.69998047 -191.91544922 101.59136719 -192.03564453 102.50976562 C-192.38580756 105.25369853 -192.70700468 107.99478353 -192.99462891 110.74609375 C-193.12011612 111.91936218 -193.12011612 111.91936218 -193.24813843 113.11633301 C-193.9401301 120.03267995 -194.16874862 126.88370595 -194.19775391 133.83203125 C-194.20481354 134.95904449 -194.21187317 136.08605774 -194.21914673 137.2472229 C-194.53649571 171.61736477 -194.53649571 171.61736477 -190.99462891 205.74609375 C-190.79063477 206.99068359 -190.58664063 208.23527344 -190.37646484 209.51757812 C-182.47458593 256.67350387 -166.56390884 302.35159723 -135.99462891 339.74609375 C-135.56859375 340.27364258 -135.14255859 340.80119141 -134.70361328 341.34472656 C-124.66924522 353.73531291 -113.67641762 365.04029812 -100.99462891 374.74609375 C-100.43549805 375.17631836 -99.87636719 375.60654297 -99.30029297 376.04980469 C-81.98771454 389.29989866 -62.94393763 400.21088096 -42.93212891 408.87109375 C-41.95203857 409.31412842 -41.95203857 409.31412842 -40.95214844 409.76611328 C-34.13500762 412.59264852 -27.37509054 412.85817741 -20.42431641 410.27734375 C-18.89729601 409.62032749 -17.37911636 408.94244802 -15.86962891 408.24609375 C-15.05268555 407.88443115 -14.23574219 407.52276855 -13.39404297 407.15014648 C-10.91521425 406.0403488 -8.45311812 404.90017052 -5.99462891 403.74609375 C-5.2737207 403.40980957 -4.5528125 403.07352539 -3.81005859 402.72705078 C16.68375319 393.06899205 35.02522934 380.70261164 52.00537109 365.74609375 C52.5072998 365.3073291 53.00922852 364.86856445 53.52636719 364.41650391 C59.4879722 359.18911556 64.92942404 353.82654401 70.00537109 347.74609375 C70.81361328 346.83730469 71.62185547 345.92851562 72.45458984 344.9921875 C84.26447946 331.62509123 93.74626708 316.51939134 102.00537109 300.74609375 C102.39402344 300.01745117 102.78267578 299.28880859 103.18310547 298.53808594 C133.72075661 240.63456868 139.90269205 169.96507847 133.00537109 105.74609375 C132.8589193 104.18625586 132.71304592 102.62636351 132.56787109 101.06640625 C132.42487313 99.70933365 132.27927728 98.35253077 132.13037109 96.99609375 C132.00919922 95.8875 131.88802734 94.77890625 131.76318359 93.63671875 C130.80249694 89.97224387 129.67807982 88.46609341 127.00537109 85.74609375 C123.99615567 84.04254346 120.83669408 82.7903984 117.62646484 81.515625 C116.68405945 81.12790421 115.74165405 80.74018341 114.77069092 80.3407135 C111.66660008 79.06689711 108.55485013 77.81300049 105.44287109 76.55859375 C103.26361148 75.66771807 101.08498927 74.77528171 98.90698242 73.88134766 C94.44012334 72.04916268 89.97076154 70.22329749 85.49951172 68.40185547 C76.9129329 64.89796711 68.36060859 61.31349551 59.81091309 57.72076416 C56.3075703 56.24923604 52.80249419 54.78186163 49.29742432 53.31445312 C42.00630706 50.26192563 34.71665654 47.20589961 27.42718506 44.14944458 C3.45514291 34.08697738 3.45514291 34.08697738 -20.55712891 24.12109375 C-21.4250708 23.76072021 -22.2930127 23.40034668 -23.18725586 23.02905273 C-30.16185246 20.17128785 -32.84500574 21.4130711 -39.59228516 24.3046875 Z " fill="#7673ED" transform="translate(285.99462890625,40.25390625)"/>
<path d="M0 0 C1.31318207 -0.01007584 1.31318207 -0.01007584 2.65289307 -0.02035522 C5.54168402 -0.03932372 8.43024247 -0.04325896 11.3190918 -0.04541016 C13.33302403 -0.05183927 15.34695534 -0.05856771 17.36088562 -0.06558228 C21.5815955 -0.07755245 25.80222356 -0.0812634 30.02294922 -0.08007812 C35.41986361 -0.07987504 40.8162508 -0.1071675 46.21304035 -0.14162254 C50.3730254 -0.16390858 54.53288397 -0.16791513 58.69292259 -0.16685867 C60.681956 -0.16921243 62.67099302 -0.17802321 64.65996742 -0.19352341 C67.44816139 -0.21321616 70.23522359 -0.20733231 73.0234375 -0.1953125 C73.83773727 -0.20655151 74.65203705 -0.21779053 75.49101257 -0.22937012 C82.03712123 -0.15800164 87.08901632 1.77382316 92.1940918 5.89599609 C99.78165797 14.96078755 99.65726541 24.82573419 99.60424805 36.16552734 C99.60627332 37.70052224 99.60918851 39.23551618 99.61294556 40.77050781 C99.61734764 43.97454057 99.61100668 47.17832099 99.59692383 50.38232422 C99.579833 54.46743868 99.58968563 58.55196162 99.60764122 62.63705444 C99.61853667 65.80286022 99.61500648 68.96852821 99.60725784 72.13433838 C99.60527171 73.63966951 99.60765864 75.1450136 99.6146965 76.65032959 C99.68805072 96.74452989 99.68805072 96.74452989 92.79100037 103.95411682 C83.36306436 111.90243489 72.72551464 111.00892581 61.0769043 110.91943359 C59.11735401 110.92026356 57.1578038 110.92272773 55.19825745 110.92674255 C51.10558948 110.92959052 47.01347181 110.91499613 42.92089844 110.88745117 C37.69340361 110.85334775 32.46689044 110.85940384 27.23934841 110.87811375 C23.19765642 110.88871633 19.15619016 110.87971672 15.11451912 110.86472893 C13.18774144 110.85957209 11.26093994 110.85999833 9.33416557 110.86627388 C6.63519 110.8717666 3.93758822 110.85122334 1.23876953 110.82397461 C0.06254784 110.83376343 0.06254784 110.83376343 -1.13743591 110.84375 C-7.92189872 110.72814889 -13.89764513 108.72285087 -19.1340332 104.32568359 C-19.66125977 103.67470703 -20.18848633 103.02373047 -20.73168945 102.35302734 C-21.27696289 101.70462891 -21.82223633 101.05623047 -22.3840332 100.38818359 C-25.58847865 95.62146004 -26.05167623 91.57204765 -26.0847168 85.87329102 C-26.09143402 85.14413986 -26.09815125 84.41498871 -26.10507202 83.66374207 C-26.12401281 81.26192337 -26.12797436 78.86038476 -26.13012695 76.45849609 C-26.13655818 74.78086738 -26.14328678 73.10323979 -26.15029907 71.4256134 C-26.16226244 67.91107586 -26.16598092 64.39663654 -26.16479492 60.88208008 C-26.16459192 56.3931339 -26.19187882 51.90482213 -26.22633934 47.41602612 C-26.24865111 43.95088344 -26.25263114 40.48589233 -26.25157547 37.0206852 C-26.25392558 35.36657846 -26.26271568 33.71246718 -26.2782402 32.05843163 C-26.42694053 14.57720551 -26.42694053 14.57720551 -19.8293457 7.04833984 C-19.17836914 6.50951172 -18.52739258 5.97068359 -17.85668945 5.41552734 C-17.20829102 4.86123047 -16.55989258 4.30693359 -15.8918457 3.73583984 C-10.71103754 0.16619548 -6.08862448 -0.00672689 0 0 Z M20.20581055 31.29052734 C16.55356401 36.57998784 16.26145917 42.06839911 17.20581055 48.29052734 C19.28113039 53.42331428 22.53222626 57.29463998 27.20581055 60.29052734 C28.53007368 60.65824469 29.86291267 60.99809926 31.20581055 61.29052734 C31.18486328 61.94126221 31.16391602 62.59199707 31.14233398 63.26245117 C31.05921716 66.2091529 31.0071657 69.15560825 30.95581055 72.10302734 C30.92229492 73.1271875 30.8887793 74.15134766 30.85424805 75.20654297 C30.84135742 76.18945312 30.8284668 77.17236328 30.81518555 78.18505859 C30.79423828 79.09102783 30.77329102 79.99699707 30.75170898 80.93041992 C31.00029734 83.44341375 31.00029734 83.44341375 33.10131836 85.11743164 C35.10578907 86.48249531 35.10578907 86.48249531 37.26831055 86.16552734 C39.53117362 85.14358918 40.6519135 84.23018014 42.20581055 82.29052734 C42.59632031 80.03774032 42.59632031 80.03774032 42.47143555 77.54443359 C42.47530273 76.6246875 42.47916992 75.70494141 42.4831543 74.75732422 C42.46495992 72.82482166 42.43116249 70.89240158 42.3815918 68.96044922 C42.40817425 66.24714057 42.48864931 63.90991155 43.20581055 61.29052734 C45.37913249 59.25845372 47.4188154 58.51320908 50.20581055 57.29052734 C51.98191215 55.35111278 51.98191215 55.35111278 53.08081055 53.22802734 C53.47010742 52.55642578 53.8594043 51.88482422 54.26049805 51.19287109 C56.88745025 45.90640116 56.87228284 41.28994422 55.01831055 35.72802734 C51.91040125 29.8337166 48.66380376 25.44319175 42.20581055 23.29052734 C32.7496692 22.27434499 26.5617963 23.90384119 20.20581055 31.29052734 Z " fill="#6583EB" transform="translate(219.794189453125,231.70947265625)"/>
<path d="M0 0 C9.37517526 8.77233694 13.21316506 19.947508 14.76171875 32.3359375 C14.76171875 39.2659375 14.76171875 46.1959375 14.76171875 53.3359375 C-14.60828125 53.3359375 -43.97828125 53.3359375 -74.23828125 53.3359375 C-74.23828125 16.13028397 -74.23828125 16.13028397 -60.61328125 1.1484375 C-43.43049613 -15.2801414 -18.18345768 -13.51859158 0 0 Z " fill="#8C60F0" transform="translate(286.23828125,167.6640625)"/>
<path d="M0 0 C3.44652326 2.44128731 4.78056289 3.82966874 5.5625 8 C4.87642343 11.65907504 3.57265686 13.35167676 1 16 C-1.88861709 17.44430855 -3.79647701 17.37688506 -7 17 C-9.86972996 15.00366611 -11.65210765 13.52770117 -12.44921875 10.02734375 C-12.63063966 6.6804408 -12.22262069 4.37103449 -10.5 1.5 C-7.01402996 -0.59158203 -3.89784294 -0.8876276 0 0 Z " fill="#6A7EEB" transform="translate(260,266)"/>
</svg>
